# xmcd
#
# Track frame offsets:
#	150
#	14148
#	33962
#	56383
#	73762
#	92418
#	110995
#	128263
#	145267
#	162488
#	179665
#	197721
#
# Disc length: 2899 seconds
#
# Revision: 1
# Processed by: cddbd v1.5.2PL0 Copyright (c) Steve Scherf et al.
# Submitted via: audiograbber 1.83.01
#
DISCID=ab0b510c
DTITLE=Al Lerman - Slow Burn
DYEAR=2016
DGENRE=Blues
TTITLE0=Don't Push Your Mess on Me
TTITLE1=It Takes Me All Night Long
TTITLE2=Bad Luck Blues
TTITLE3=Gonna Have to Wait
TTITLE4=Now That Your Man's Gone
TTITLE5=Totally Out of Whack
TTITLE6=Younger Than Me
TTITLE7=Any Way You Want
TTITLE8=Tattoo Like You
TTITLE9=Better Off Taking Chances
TTITLE10=Kokomo
TTITLE11=Slow Burn
EXTD=
EXTT0=
EXTT1=
EXTT2=
EXTT3=
EXTT4=
EXTT5=
EXTT6=
EXTT7=
EXTT8=
EXTT9=
EXTT10=
EXTT11=
PLAYORDER=
